<svg width="100" height="100" viewBox="0 0 100 100" fill="none" xmlns="http://www.w3.org/2000/svg">
<mask id="mask0_18_208" style="mask-type:alpha" maskUnits="userSpaceOnUse" x="0" y="0" width="100" height="100">
<rect width="100" height="100" fill="#C4C4C4"/>
</mask>
<g mask="url(#mask0_18_208)">
</g>
<g clip-path="url(#clip0_18_208)">
<path d="M81.5736 21.896L48.0982 7.77386C37.921 3.48048 26.1903 8.2502 21.8969 18.4273L7.77479 51.9028C3.48141 62.08 8.25114 73.8106 18.4283 78.104L51.9038 92.2262C62.0809 96.5196 73.8116 91.7498 78.105 81.5727L92.2271 48.0972C96.5205 37.9201 91.7508 26.1894 81.5736 21.896Z" fill="#E5F2EC"/>
<path d="M68.1669 11.834H31.8345C20.7888 11.834 11.8345 20.7883 11.8345 31.834V68.1664C11.8345 79.2121 20.7888 88.1664 31.8345 88.1664H68.1669C79.2126 88.1664 88.1669 79.2121 88.1669 68.1664V31.834C88.1669 20.7883 79.2126 11.834 68.1669 11.834Z" fill="#C7E9DF"/>
<g filter="url(#filter0_d_18_208)">
<path d="M54.1828 60.4851C42.0926 60.4851 32.2916 54.3312 32.2916 46.7399C32.2916 39.1486 42.0926 32.9946 54.1828 32.9946C66.2729 32.9946 76.0739 39.1486 76.0739 46.7399C76.0739 49.7558 74.527 52.5448 71.9042 54.8112V62.5998L64.6071 58.8297C61.5077 59.8855 57.9568 60.4851 54.1828 60.4851Z" fill="#0A8D68"/>
<path d="M47.0681 49.1262C48.5794 49.1262 49.8045 47.8836 49.8045 46.3507C49.8045 44.8179 48.5794 43.5753 47.0681 43.5753C45.5568 43.5753 44.3317 44.8179 44.3317 46.3507C44.3317 47.8836 45.5568 49.1262 47.0681 49.1262Z" fill="#FFF0DB"/>
<path opacity="0.3" d="M56.1898 49.1262C57.7011 49.1262 58.9262 47.8836 58.9262 46.3507C58.9262 44.8179 57.7011 43.5753 56.1898 43.5753C54.6785 43.5753 53.4534 44.8179 53.4534 46.3507C53.4534 47.8836 54.6785 49.1262 56.1898 49.1262Z" fill="white"/>
<path opacity="0.3" d="M65.3105 49.1262C66.8218 49.1262 68.0469 47.8836 68.0469 46.3507C68.0469 44.8179 66.8218 43.5753 65.3105 43.5753C63.7992 43.5753 62.5741 44.8179 62.5741 46.3507C62.5741 47.8836 63.7992 49.1262 65.3105 49.1262Z" fill="white"/>
<path d="M42.325 64.4497C52.9039 64.4497 61.4797 59.065 61.4797 52.4226C61.4797 45.7802 52.9039 40.3955 42.325 40.3955C31.7461 40.3955 23.1702 45.7802 23.1702 52.4226C23.1702 55.0615 24.5238 57.5019 26.8188 59.485V66.3L33.2037 63.0012C35.9157 63.925 39.0227 64.4497 42.325 64.4497Z" fill="#17B588"/>
<path d="M33.2038 55.1984C34.7151 55.1984 35.9402 53.9558 35.9402 52.423C35.9402 50.8901 34.7151 49.6475 33.2038 49.6475C31.6925 49.6475 30.4674 50.8901 30.4674 52.423C30.4674 53.9558 31.6925 55.1984 33.2038 55.1984Z" fill="white"/>
<path opacity="0.3" d="M42.3254 55.1984C43.8366 55.1984 45.0618 53.9558 45.0618 52.423C45.0618 50.8901 43.8366 49.6475 42.3254 49.6475C40.8141 49.6475 39.589 50.8901 39.589 52.423C39.589 53.9558 40.8141 55.1984 42.3254 55.1984Z" fill="white"/>
<path opacity="0.3" d="M51.4462 55.1984C52.9575 55.1984 54.1826 53.9558 54.1826 52.423C54.1826 50.8901 52.9575 49.6475 51.4462 49.6475C49.9349 49.6475 48.7098 50.8901 48.7098 52.423C48.7098 53.9558 49.9349 55.1984 51.4462 55.1984Z" fill="white"/>
</g>
</g>
<defs>
<filter id="filter0_d_18_208" x="3.1702" y="22.9946" width="92.9037" height="73.3054" filterUnits="userSpaceOnUse" color-interpolation-filters="sRGB">
<feFlood flood-opacity="0" result="BackgroundImageFix"/>
<feColorMatrix in="SourceAlpha" type="matrix" values="0 0 0 0 0 0 0 0 0 0 0 0 0 0 0 0 0 0 127 0" result="hardAlpha"/>
<feOffset dy="10"/>
<feGaussianBlur stdDeviation="10"/>
<feColorMatrix type="matrix" values="0 0 0 0 0.0513889 0 0 0 0 0.616667 0 0 0 0 0.45567 0 0 0 0.2 0"/>
<feBlend mode="normal" in2="BackgroundImageFix" result="effect1_dropShadow_18_208"/>
<feBlend mode="normal" in="SourceGraphic" in2="effect1_dropShadow_18_208" result="shape"/>
</filter>
<clipPath id="clip0_18_208">
<rect width="100" height="100" fill="white"/>
</clipPath>
</defs>
</svg>
