<svg width="100" height="100" viewBox="0 0 100 100" fill="none" xmlns="http://www.w3.org/2000/svg">
<mask id="mask0_18_209" style="mask-type:alpha" maskUnits="userSpaceOnUse" x="0" y="0" width="100" height="100">
<rect width="100" height="100" fill="#C4C4C4"/>
</mask>
<g mask="url(#mask0_18_209)">
</g>
<g clip-path="url(#clip0_18_209)">
<path d="M81.5736 21.896L48.0981 7.77386C37.921 3.48048 26.1903 8.2502 21.8969 18.4273L7.77479 51.9028C3.4814 62.08 8.25113 73.8106 18.4283 78.104L51.9038 92.2262C62.0809 96.5196 73.8116 91.7498 78.105 81.5727L92.2271 48.0972C96.5205 37.9201 91.7508 26.1894 81.5736 21.896Z" fill="#FFEAED"/>
<path d="M68.3319 12H31.9995C20.9538 12 11.9995 20.9543 11.9995 32V68.3324C11.9995 79.3781 20.9538 88.3324 31.9995 88.3324H68.3319C79.3776 88.3324 88.3319 79.3781 88.3319 68.3324V32C88.3319 20.9543 79.3776 12 68.3319 12Z" fill="#FFDEE3"/>
<g filter="url(#filter0_d_18_209)">
<path d="M69.9999 52.8823H62.7529V70.9997H69.9999V52.8823Z" fill="#FF8091"/>
<path d="M59.1298 40.2002H51.8828V70.9998H59.1298V40.2002Z" fill="#FB3B55"/>
<path d="M48.2587 47.4473H41.0117V71H48.2587V47.4473Z" fill="#FF8091"/>
<path d="M37.3885 60.1299H30.1415V71.0004H37.3885V60.1299Z" fill="#FF9AA8"/>
<path d="M41.012 41.992C41.012 44.2182 39.3746 45.5018 36.8276 45.8027V47.4473H34.417V45.8027C31.8017 45.4617 30.3235 44.0377 30.1415 42.1123H32.9388C33.2116 43.2756 34.2123 43.9976 35.6905 43.9976C37.4643 43.9976 38.192 43.2555 38.192 42.2728C38.192 41.1898 37.578 40.6282 35.3039 40.0466C31.6652 39.124 30.4599 37.9808 30.4599 36.0353C30.4599 34.0498 32.1201 32.7862 34.3032 32.4653V31.1416H36.6911V32.4653C39.5338 32.8063 40.5117 34.3907 40.6709 35.8548H37.8737C37.669 35.1528 37.2369 34.2503 35.4176 34.2503C33.8029 34.2503 33.2799 35.0726 33.2799 35.7946C33.2799 36.7974 33.8712 37.2186 36.35 37.8404C39.8067 38.6827 41.012 39.9062 41.012 41.992Z" fill="#FB3B55"/>
</g>
</g>
<defs>
<filter id="filter0_d_18_209" x="14.1415" y="23.1416" width="71.8584" height="71.8588" filterUnits="userSpaceOnUse" color-interpolation-filters="sRGB">
<feFlood flood-opacity="0" result="BackgroundImageFix"/>
<feColorMatrix in="SourceAlpha" type="matrix" values="0 0 0 0 0 0 0 0 0 0 0 0 0 0 0 0 0 0 127 0" result="hardAlpha"/>
<feOffset dy="8"/>
<feGaussianBlur stdDeviation="8"/>
<feColorMatrix type="matrix" values="0 0 0 0 0.9125 0 0 0 0 0.178698 0 0 0 0 0.278067 0 0 0 0.25 0"/>
<feBlend mode="normal" in2="BackgroundImageFix" result="effect1_dropShadow_18_209"/>
<feBlend mode="normal" in="SourceGraphic" in2="effect1_dropShadow_18_209" result="shape"/>
</filter>
<clipPath id="clip0_18_209">
<rect width="100" height="100" fill="white"/>
</clipPath>
</defs>
</svg>
